# xmcd
#
# Track frame offsets:
#	150
#	11303
#	36796
#	51749
#	82647
#	97581
#	115452
#	131335
#	150668
#	166054
#	179383
#	196942
#	219389
#
# Disc length: 3117 seconds
#
# Revision: 1
# Processed by: cddbd v1.5.2PL0 Copyright (c) Steve Scherf et al.
# Submitted via: audiograbber 1.83.01
#
DISCID=970c2b0d
DTITLE=Gavin Arden - Made In Australia
DYEAR=1900
DGENRE=Country
TTITLE0=Made In Australia
TTITLE1=The Miracle (In The Bush)
TTITLE2=Wattles In heaven
TTITLE3=Up The Pretty Plain
TTITLE4=Bush Dawning (Instrumental)
TTITLE5=Little Old Heart
TTITLE6=At Least I Had To Go
TTITLE7=The Ballad Of Tom and Harry
TTITLE8=Look Beyond Your Troubles
TTITLE9=Lest We Forget
TTITLE10=Cattledust and Leather
TTITLE11=The Gelignite Fuse
TTITLE12=Every Day Of My Life
EXTD=
EXTT0=
EXTT1=
EXTT2=
EXTT3=
EXTT4=
EXTT5=
EXTT6=
EXTT7=
EXTT8=
EXTT9=
EXTT10=
EXTT11=
EXTT12=
PLAYORDER=
